# xmcd CD database file
#
# Track frame offsets:
#	150
#	9957
#	23252
#	39512
#	53360
#	65320
#	76840
#	90295
#	112890
#	125740
#	135937
#	148630
#	162085
#	179520
#	191180
#	203725
#	215092
#	232075
#	247635
#	266107
#
# Disc length: 3787 seconds
#
# Revision: 2
# Processed by: cddbd v1.5.2PL0 Copyright (c) Steve Scherf et al.
# Submitted via: CDex 1.70beta2
#
DISCID=fd0ec914
DTITLE=Tomas Linka - Pani ma se ma
DYEAR=1993
DGENRE=Country
TTITLE0=Kamarad
TTITLE1=Je mi lto
TTITLE2=Blaznivy blues
TTITLE3=Prej si
TTITLE4=Plnocni kovboj
TTITLE5=Panenka
TTITLE6=Ten kram je muj dzip
TTITLE7=Svita ve tvych tvarich
TTITLE8=To jsem ja
TTITLE9=Ptacata
TTITLE10=Chci byt vodou na tvuj mlyn
TTITLE11=Jitro vchazi oknem
TTITLE12=Hitparada lasky
TTITLE13=Tak ja jdu dal
TTITLE14=Kovbojove a klauni
TTITLE15=Help Me Make It Through The Night
TTITLE16=Touha
TTITLE17=Divnej smich
TTITLE18=Pani ma se ma
TTITLE19=Lojza a Liza
EXTD=Tomas Linka 20 Hitu YEAR: 1993
EXTT0=
EXTT1=
EXTT2=
EXTT3=
EXTT4=
EXTT5=
EXTT6=
EXTT7=
EXTT8=
EXTT9=
EXTT10=
EXTT11=
EXTT12=
EXTT13=
EXTT14=
EXTT15=
EXTT16=
EXTT17=
EXTT18=
EXTT19=
PLAYORDER=
